# MagicaVoxel @ Ephtracy

# group
o 

# material
mtllib MainTower-0.mtl
usemtl palette

# normals
vn -1 0 0
vn 1 0 0
vn 0 0 1
vn 0 0 -1
vn 0 -1 0
vn 0 1 0

# texcoords
vt 0.978516 0.5
vt 0.986328 0.5

# verts
v 1.2 4.1 -1.8
v 1.2 4.1 -2.2
v 1.2 4.2 -1.8
v 1.2 4.2 -2.2
v 1.3 3.9 -1.8
v 1.3 3.9 -2.2
v 1.3 4.1 -1.7
v 1.3 4.1 -1.8
v 1.3 4.1 -2.2
v 1.3 4.1 -2.3
v 1.3 4.2 -1.7
v 1.3 4.2 -1.8
v 1.3 4.2 -2.2
v 1.3 4.2 -2.3
v 1.3 4.4 -1.8
v 1.3 4.4 -2.2
v 1.4 3.8 -1.9
v 1.4 3.8 -2.1
v 1.4 3.9 -1.9
v 1.4 3.9 -2.1
v 1.4 4.4 -1.9
v 1.4 4.4 -2.1
v 1.4 4.5 -1.9
v 1.4 4.5 -2.1
v 1.6 3.8 -1.9
v 1.6 3.8 -2.1
v 1.6 3.9 -1.9
v 1.6 3.9 -2.1
v 1.6 4.4 -1.9
v 1.6 4.4 -2.1
v 1.6 4.5 -1.9
v 1.6 4.5 -2.1
v 1.7 3.9 -1.8
v 1.7 3.9 -2.2
v 1.7 4.1 -1.7
v 1.7 4.1 -1.8
v 1.7 4.1 -2.2
v 1.7 4.1 -2.3
v 1.7 4.2 -1.7
v 1.7 4.2 -1.8
v 1.7 4.2 -2.2
v 1.7 4.2 -2.3
v 1.7 4.4 -1.8
v 1.7 4.4 -2.2
v 1.8 4.1 -1.8
v 1.8 4.1 -2.2
v 1.8 4.2 -1.8
v 1.8 4.2 -2.2
v 1.3 4.1 -1.7
v 1.3 4.2 -1.7
v 1.7 4.1 -1.7
v 1.7 4.2 -1.7
v 1.2 4.1 -1.8
v 1.2 4.2 -1.8
v 1.3 3.9 -1.8
v 1.3 4.1 -1.8
v 1.3 4.2 -1.8
v 1.3 4.4 -1.8
v 1.7 3.9 -1.8
v 1.7 4.1 -1.8
v 1.7 4.2 -1.8
v 1.7 4.4 -1.8
v 1.8 4.1 -1.8
v 1.8 4.2 -1.8
v 1.4 3.8 -1.9
v 1.4 3.9 -1.9
v 1.4 4.4 -1.9
v 1.4 4.5 -1.9
v 1.6 3.8 -1.9
v 1.6 3.9 -1.9
v 1.6 4.4 -1.9
v 1.6 4.5 -1.9
v 1.4 3.8 -2.1
v 1.4 3.9 -2.1
v 1.4 4.4 -2.1
v 1.4 4.5 -2.1
v 1.6 3.8 -2.1
v 1.6 3.9 -2.1
v 1.6 4.4 -2.1
v 1.6 4.5 -2.1
v 1.2 4.1 -2.2
v 1.2 4.2 -2.2
v 1.3 3.9 -2.2
v 1.3 4.1 -2.2
v 1.3 4.2 -2.2
v 1.3 4.4 -2.2
v 1.7 3.9 -2.2
v 1.7 4.1 -2.2
v 1.7 4.2 -2.2
v 1.7 4.4 -2.2
v 1.8 4.1 -2.2
v 1.8 4.2 -2.2
v 1.3 4.1 -2.3
v 1.3 4.2 -2.3
v 1.7 4.1 -2.3
v 1.7 4.2 -2.3
v 1.4 3.8 -1.9
v 1.6 3.8 -1.9
v 1.4 3.8 -2.1
v 1.6 3.8 -2.1
v 1.3 3.9 -1.8
v 1.7 3.9 -1.8
v 1.4 3.9 -1.9
v 1.6 3.9 -1.9
v 1.4 3.9 -2.1
v 1.6 3.9 -2.1
v 1.3 3.9 -2.2
v 1.7 3.9 -2.2
v 1.3 4.1 -1.7
v 1.7 4.1 -1.7
v 1.2 4.1 -1.8
v 1.3 4.1 -1.8
v 1.7 4.1 -1.8
v 1.8 4.1 -1.8
v 1.2 4.1 -2.2
v 1.3 4.1 -2.2
v 1.7 4.1 -2.2
v 1.8 4.1 -2.2
v 1.3 4.1 -2.3
v 1.7 4.1 -2.3
v 1.3 4.2 -1.7
v 1.7 4.2 -1.7
v 1.2 4.2 -1.8
v 1.3 4.2 -1.8
v 1.7 4.2 -1.8
v 1.8 4.2 -1.8
v 1.2 4.2 -2.2
v 1.3 4.2 -2.2
v 1.7 4.2 -2.2
v 1.8 4.2 -2.2
v 1.3 4.2 -2.3
v 1.7 4.2 -2.3
v 1.3 4.4 -1.8
v 1.7 4.4 -1.8
v 1.4 4.4 -1.9
v 1.6 4.4 -1.9
v 1.4 4.4 -2.1
v 1.6 4.4 -2.1
v 1.3 4.4 -2.2
v 1.7 4.4 -2.2
v 1.4 4.5 -1.9
v 1.6 4.5 -1.9
v 1.4 4.5 -2.1
v 1.6 4.5 -2.1

# faces
f 3/2/1 2/2/1 1/2/1
f 4/2/1 2/2/1 3/2/1
f 8/1/1 6/1/1 5/1/1
f 9/1/1 6/1/1 8/1/1
f 11/2/1 8/2/1 7/2/1
f 12/2/1 8/2/1 11/2/1
f 13/2/1 10/2/1 9/2/1
f 14/2/1 10/2/1 13/2/1
f 15/1/1 13/1/1 12/1/1
f 16/1/1 13/1/1 15/1/1
f 19/2/1 18/2/1 17/2/1
f 20/2/1 18/2/1 19/2/1
f 23/2/1 22/2/1 21/2/1
f 24/2/1 22/2/1 23/2/1
f 25/2/2 26/2/2 27/2/2
f 27/2/2 26/2/2 28/2/2
f 29/2/2 30/2/2 31/2/2
f 31/2/2 30/2/2 32/2/2
f 33/1/2 34/1/2 36/1/2
f 36/1/2 34/1/2 37/1/2
f 35/2/2 36/2/2 39/2/2
f 39/2/2 36/2/2 40/2/2
f 37/2/2 38/2/2 41/2/2
f 41/2/2 38/2/2 42/2/2
f 40/1/2 41/1/2 43/1/2
f 43/1/2 41/1/2 44/1/2
f 45/2/2 46/2/2 47/2/2
f 47/2/2 46/2/2 48/2/2
f 51/2/3 50/2/3 49/2/3
f 52/2/3 50/2/3 51/2/3
f 56/2/3 54/2/3 53/2/3
f 57/2/3 54/2/3 56/2/3
f 59/1/3 56/1/3 55/1/3
f 60/1/3 56/1/3 59/1/3
f 61/1/3 58/1/3 57/1/3
f 62/1/3 58/1/3 61/1/3
f 63/2/3 61/2/3 60/2/3
f 64/2/3 61/2/3 63/2/3
f 69/2/3 66/2/3 65/2/3
f 70/2/3 66/2/3 69/2/3
f 71/2/3 68/2/3 67/2/3
f 72/2/3 68/2/3 71/2/3
f 73/2/4 74/2/4 77/2/4
f 77/2/4 74/2/4 78/2/4
f 75/2/4 76/2/4 79/2/4
f 79/2/4 76/2/4 80/2/4
f 81/2/4 82/2/4 84/2/4
f 84/2/4 82/2/4 85/2/4
f 83/1/4 84/1/4 87/1/4
f 87/1/4 84/1/4 88/1/4
f 85/1/4 86/1/4 89/1/4
f 89/1/4 86/1/4 90/1/4
f 88/2/4 89/2/4 91/2/4
f 91/2/4 89/2/4 92/2/4
f 93/2/4 94/2/4 95/2/4
f 95/2/4 94/2/4 96/2/4
f 99/2/5 98/2/5 97/2/5
f 100/2/5 98/2/5 99/2/5
f 103/1/5 102/1/5 101/1/5
f 104/1/5 102/1/5 103/1/5
f 105/1/5 103/1/5 101/1/5
f 106/1/5 102/1/5 104/1/5
f 107/1/5 105/1/5 101/1/5
f 107/1/5 106/1/5 105/1/5
f 108/1/5 102/1/5 106/1/5
f 108/1/5 106/1/5 107/1/5
f 112/2/5 110/2/5 109/2/5
f 113/2/5 110/2/5 112/2/5
f 115/2/5 112/2/5 111/2/5
f 116/2/5 112/2/5 115/2/5
f 117/2/5 114/2/5 113/2/5
f 118/2/5 114/2/5 117/2/5
f 119/2/5 117/2/5 116/2/5
f 120/2/5 117/2/5 119/2/5
f 121/2/6 122/2/6 124/2/6
f 124/2/6 122/2/6 125/2/6
f 123/2/6 124/2/6 127/2/6
f 127/2/6 124/2/6 128/2/6
f 125/2/6 126/2/6 129/2/6
f 129/2/6 126/2/6 130/2/6
f 128/2/6 129/2/6 131/2/6
f 131/2/6 129/2/6 132/2/6
f 133/1/6 134/1/6 135/1/6
f 135/1/6 134/1/6 136/1/6
f 133/1/6 135/1/6 137/1/6
f 136/1/6 134/1/6 138/1/6
f 133/1/6 137/1/6 139/1/6
f 137/1/6 138/1/6 139/1/6
f 138/1/6 134/1/6 140/1/6
f 139/1/6 138/1/6 140/1/6
f 141/2/6 142/2/6 143/2/6
f 143/2/6 142/2/6 144/2/6
