# MagicaVoxel @ Ephtracy

# group
o 

# material
mtllib slowTower.mtl
usemtl palette

# normals
vn -1 0 0
vn 1 0 0
vn 0 0 1
vn 0 0 -1
vn 0 -1 0
vn 0 1 0

# texcoords
vt 0.306641 0.5
vt 0.939453 0.5
vt 0.943359 0.5
vt 0.974609 0.5
vt 0.978516 0.5
vt 0.982422 0.5
vt 0.986328 0.5
vt 0.990234 0.5

# verts
v -0.6 0.1 0.8
v -0.6 0.1 -0.8
v -0.6 0.2 0.7
v -0.6 0.2 -0.7
v -0.6 0.3 0.6
v -0.6 0.3 -0.6
v -0.6 0.7 0.6
v -0.6 0.7 -0.6
v -0.6 1 0.6
v -0.6 1 -0.6
v -0.6 1.4 0.6
v -0.6 1.4 -0.6
v -0.6 1.5 0.7
v -0.6 1.5 -0.7
v -0.6 1.6 0.8
v -0.6 1.6 -0.8
v -0.5 0.2 0.7
v -0.5 0.2 -0.7
v -0.5 0.3 0.6
v -0.5 0.3 -0.6
v -0.5 0.7 0.6
v -0.5 0.7 -0.6
v -0.5 1 0.6
v -0.5 1 -0.6
v -0.5 1.4 0.6
v -0.5 1.4 -0.6
v -0.5 1.5 0.7
v -0.5 1.5 -0.7
v -0.5 1.6 0.7
v -0.5 1.6 -0.7
v -0.5 1.7 0.7
v -0.5 1.7 -0.7
v -0.4 0.3 0.8
v -0.4 0.3 0.7
v -0.4 0.3 -0.7
v -0.4 0.3 -0.8
v -0.4 0.7 0.8
v -0.4 0.7 0.7
v -0.4 0.7 -0.7
v -0.4 0.7 -0.8
v -0.4 1 0.8
v -0.4 1 0.7
v -0.4 1 -0.7
v -0.4 1 -0.8
v -0.4 1.4 0.8
v -0.4 1.4 0.7
v -0.4 1.4 -0.7
v -0.4 1.4 -0.8
v -0.4 1.7 0.6
v -0.4 1.7 -0.6
v -0.4 1.8 0.6
v -0.4 1.8 -0.6
v -0.3 1.8 0.5
v -0.3 1.8 -0.5
v -0.3 1.9 0.5
v -0.3 1.9 -0.5
v -0.2 1.9 0.4
v -0.2 1.9 -0.4
v -0.2 2 0.4
v -0.2 2 -0.4
v -5.96046e-08 2.2 0.1
v -5.96046e-08 2.2 -0.1
v -5.96046e-08 2.5 0.1
v -5.96046e-08 2.5 -0.1
v 0.1 2 0.1
v 0.1 2 -0.1
v 0.1 2.2 0.2
v 0.1 2.2 0.1
v 0.1 2.2 -0.1
v 0.1 2.2 -0.2
v 0.1 2.5 0.2
v 0.1 2.5 0.1
v 0.1 2.5 -0.1
v 0.1 2.5 -0.2
v 0.9 0.2 0.8
v 0.9 0.2 0.7
v 0.9 0.2 -0.7
v 0.9 0.2 -0.8
v 0.9 1.5 0.8
v 0.9 1.5 0.7
v 0.9 1.5 -0.7
v 0.9 1.5 -0.8
v -0.5 0.2 0.8
v -0.5 0.2 0.7
v -0.5 0.2 -0.7
v -0.5 0.2 -0.8
v -0.5 1.5 0.8
v -0.5 1.5 0.7
v -0.5 1.5 -0.7
v -0.5 1.5 -0.8
v 0.3 2 0.1
v 0.3 2 -0.1
v 0.3 2.2 0.2
v 0.3 2.2 0.1
v 0.3 2.2 -0.1
v 0.3 2.2 -0.2
v 0.3 2.5 0.2
v 0.3 2.5 0.1
v 0.3 2.5 -0.1
v 0.3 2.5 -0.2
v 0.4 2.2 0.1
v 0.4 2.2 -0.1
v 0.4 2.5 0.1
v 0.4 2.5 -0.1
v 0.6 1.9 0.4
v 0.6 1.9 -0.4
v 0.6 2 0.4
v 0.6 2 -0.4
v 0.7 1.8 0.5
v 0.7 1.8 -0.5
v 0.7 1.9 0.5
v 0.7 1.9 -0.5
v 0.8 0.3 0.8
v 0.8 0.3 0.7
v 0.8 0.3 -0.7
v 0.8 0.3 -0.8
v 0.8 0.7 0.8
v 0.8 0.7 0.7
v 0.8 0.7 -0.7
v 0.8 0.7 -0.8
v 0.8 1 0.8
v 0.8 1 0.7
v 0.8 1 -0.7
v 0.8 1 -0.8
v 0.8 1.4 0.8
v 0.8 1.4 0.7
v 0.8 1.4 -0.7
v 0.8 1.4 -0.8
v 0.8 1.7 0.6
v 0.8 1.7 -0.6
v 0.8 1.8 0.6
v 0.8 1.8 -0.6
v 0.9 0.2 0.7
v 0.9 0.2 -0.7
v 0.9 0.3 0.6
v 0.9 0.3 -0.6
v 0.9 0.7 0.6
v 0.9 0.7 -0.6
v 0.9 1 0.6
v 0.9 1 -0.6
v 0.9 1.4 0.6
v 0.9 1.4 -0.6
v 0.9 1.5 0.7
v 0.9 1.5 -0.7
v 0.9 1.6 0.7
v 0.9 1.6 -0.7
v 0.9 1.7 0.7
v 0.9 1.7 -0.7
v 1 0.1 0.8
v 1 0.1 -0.8
v 1 0.2 0.7
v 1 0.2 -0.7
v 1 0.3 0.6
v 1 0.3 -0.6
v 1 0.7 0.6
v 1 0.7 -0.6
v 1 1 0.6
v 1 1 -0.6
v 1 1.4 0.6
v 1 1.4 -0.6
v 1 1.5 0.7
v 1 1.5 -0.7
v 1 1.6 0.8
v 1 1.6 -0.8
v -0.6 0.1 0.8
v -0.6 1.6 0.8
v -0.5 0.2 0.8
v -0.5 1.5 0.8
v -0.4 0.3 0.8
v -0.4 0.7 0.8
v -0.4 1 0.8
v -0.4 1.4 0.8
v 0.8 0.3 0.8
v 0.8 0.7 0.8
v 0.8 1 0.8
v 0.8 1.4 0.8
v 0.9 0.2 0.8
v 0.9 1.5 0.8
v 1 0.1 0.8
v 1 1.6 0.8
v -0.5 0.2 0.7
v -0.5 1.5 0.7
v -0.5 1.6 0.7
v -0.5 1.7 0.7
v -0.4 0.3 0.7
v -0.4 0.7 0.7
v -0.4 1 0.7
v -0.4 1.4 0.7
v 0.8 0.3 0.7
v 0.8 0.7 0.7
v 0.8 1 0.7
v 0.8 1.4 0.7
v 0.9 0.2 0.7
v 0.9 1.5 0.7
v 0.9 1.6 0.7
v 0.9 1.7 0.7
v -0.6 0.3 0.6
v -0.6 0.7 0.6
v -0.6 1 0.6
v -0.6 1.4 0.6
v -0.5 0.3 0.6
v -0.5 0.7 0.6
v -0.5 1 0.6
v -0.5 1.4 0.6
v -0.4 1.7 0.6
v -0.4 1.8 0.6
v 0.8 1.7 0.6
v 0.8 1.8 0.6
v 0.9 0.3 0.6
v 0.9 0.7 0.6
v 0.9 1 0.6
v 0.9 1.4 0.6
v 1 0.3 0.6
v 1 0.7 0.6
v 1 1 0.6
v 1 1.4 0.6
v -0.3 1.8 0.5
v -0.3 1.9 0.5
v 0.7 1.8 0.5
v 0.7 1.9 0.5
v -0.2 1.9 0.4
v -0.2 2 0.4
v 0.6 1.9 0.4
v 0.6 2 0.4
v 0.1 2.2 0.2
v 0.1 2.5 0.2
v 0.3 2.2 0.2
v 0.3 2.5 0.2
v -5.96046e-08 2.2 0.1
v -5.96046e-08 2.5 0.1
v 0.1 2 0.1
v 0.1 2.2 0.1
v 0.1 2.5 0.1
v 0.3 2 0.1
v 0.3 2.2 0.1
v 0.3 2.5 0.1
v 0.4 2.2 0.1
v 0.4 2.5 0.1
v -0.6 0.2 -0.7
v -0.6 1.5 -0.7
v -0.5 0.2 -0.7
v -0.5 1.5 -0.7
v 0.9 0.2 -0.7
v 0.9 1.5 -0.7
v 1 0.2 -0.7
v 1 1.5 -0.7
v -0.6 0.2 0.7
v -0.6 1.5 0.7
v -0.5 0.2 0.7
v -0.5 1.5 0.7
v 0.9 0.2 0.7
v 0.9 1.5 0.7
v 1 0.2 0.7
v 1 1.5 0.7
v -5.96046e-08 2.2 -0.1
v -5.96046e-08 2.5 -0.1
v 0.1 2 -0.1
v 0.1 2.2 -0.1
v 0.1 2.5 -0.1
v 0.3 2 -0.1
v 0.3 2.2 -0.1
v 0.3 2.5 -0.1
v 0.4 2.2 -0.1
v 0.4 2.5 -0.1
v 0.1 2.2 -0.2
v 0.1 2.5 -0.2
v 0.3 2.2 -0.2
v 0.3 2.5 -0.2
v -0.2 1.9 -0.4
v -0.2 2 -0.4
v 0.6 1.9 -0.4
v 0.6 2 -0.4
v -0.3 1.8 -0.5
v -0.3 1.9 -0.5
v 0.7 1.8 -0.5
v 0.7 1.9 -0.5
v -0.6 0.3 -0.6
v -0.6 0.7 -0.6
v -0.6 1 -0.6
v -0.6 1.4 -0.6
v -0.5 0.3 -0.6
v -0.5 0.7 -0.6
v -0.5 1 -0.6
v -0.5 1.4 -0.6
v -0.4 1.7 -0.6
v -0.4 1.8 -0.6
v 0.8 1.7 -0.6
v 0.8 1.8 -0.6
v 0.9 0.3 -0.6
v 0.9 0.7 -0.6
v 0.9 1 -0.6
v 0.9 1.4 -0.6
v 1 0.3 -0.6
v 1 0.7 -0.6
v 1 1 -0.6
v 1 1.4 -0.6
v -0.5 0.2 -0.7
v -0.5 1.5 -0.7
v -0.5 1.6 -0.7
v -0.5 1.7 -0.7
v -0.4 0.3 -0.7
v -0.4 0.7 -0.7
v -0.4 1 -0.7
v -0.4 1.4 -0.7
v 0.8 0.3 -0.7
v 0.8 0.7 -0.7
v 0.8 1 -0.7
v 0.8 1.4 -0.7
v 0.9 0.2 -0.7
v 0.9 1.5 -0.7
v 0.9 1.6 -0.7
v 0.9 1.7 -0.7
v -0.6 0.1 -0.8
v -0.6 1.6 -0.8
v -0.5 0.2 -0.8
v -0.5 1.5 -0.8
v -0.4 0.3 -0.8
v -0.4 0.7 -0.8
v -0.4 1 -0.8
v -0.4 1.4 -0.8
v 0.8 0.3 -0.8
v 0.8 0.7 -0.8
v 0.8 1 -0.8
v 0.8 1.4 -0.8
v 0.9 0.2 -0.8
v 0.9 1.5 -0.8
v 1 0.1 -0.8
v 1 1.6 -0.8
v -0.6 0.1 0.8
v 1 0.1 0.8
v -0.6 0.1 -0.8
v 1 0.1 -0.8
v -0.4 0.3 0.8
v 0.8 0.3 0.8
v -0.4 0.3 0.7
v 0.8 0.3 0.7
v -0.6 0.3 0.6
v -0.5 0.3 0.6
v 0.9 0.3 0.6
v 1 0.3 0.6
v -0.6 0.3 -0.6
v -0.5 0.3 -0.6
v 0.9 0.3 -0.6
v 1 0.3 -0.6
v -0.4 0.3 -0.7
v 0.8 0.3 -0.7
v -0.4 0.3 -0.8
v 0.8 0.3 -0.8
v -0.5 1.5 0.8
v 0.9 1.5 0.8
v -0.6 1.5 0.7
v -0.5 1.5 0.7
v 0.9 1.5 0.7
v 1 1.5 0.7
v -0.6 1.5 -0.7
v -0.5 1.5 -0.7
v 0.9 1.5 -0.7
v 1 1.5 -0.7
v -0.5 1.5 -0.8
v 0.9 1.5 -0.8
v 0.1 2.2 0.2
v 0.3 2.2 0.2
v -5.96046e-08 2.2 0.1
v 0.1 2.2 0.1
v 0.3 2.2 0.1
v 0.4 2.2 0.1
v -5.96046e-08 2.2 -0.1
v 0.1 2.2 -0.1
v 0.3 2.2 -0.1
v 0.4 2.2 -0.1
v 0.1 2.2 -0.2
v 0.3 2.2 -0.2
v -0.5 0.2 0.8
v 0.9 0.2 0.8
v -0.6 0.2 0.7
v -0.5 0.2 0.7
v 0.9 0.2 0.7
v 1 0.2 0.7
v -0.6 0.2 -0.7
v -0.5 0.2 -0.7
v 0.9 0.2 -0.7
v 1 0.2 -0.7
v -0.5 0.2 -0.8
v 0.9 0.2 -0.8
v -0.4 1.4 0.8
v 0.8 1.4 0.8
v -0.4 1.4 0.7
v 0.8 1.4 0.7
v -0.6 1.4 0.6
v -0.5 1.4 0.6
v 0.9 1.4 0.6
v 1 1.4 0.6
v -0.6 1.4 -0.6
v -0.5 1.4 -0.6
v 0.9 1.4 -0.6
v 1 1.4 -0.6
v -0.4 1.4 -0.7
v 0.8 1.4 -0.7
v -0.4 1.4 -0.8
v 0.8 1.4 -0.8
v -0.6 1.6 0.8
v 1 1.6 0.8
v -0.5 1.6 0.7
v 0.9 1.6 0.7
v -0.5 1.6 -0.7
v 0.9 1.6 -0.7
v -0.6 1.6 -0.8
v 1 1.6 -0.8
v -0.5 1.7 0.7
v 0.9 1.7 0.7
v -0.4 1.7 0.6
v 0.8 1.7 0.6
v -0.4 1.7 -0.6
v 0.8 1.7 -0.6
v -0.5 1.7 -0.7
v 0.9 1.7 -0.7
v -0.4 1.8 0.6
v 0.8 1.8 0.6
v -0.3 1.8 0.5
v 0.7 1.8 0.5
v -0.3 1.8 -0.5
v 0.7 1.8 -0.5
v -0.4 1.8 -0.6
v 0.8 1.8 -0.6
v -0.3 1.9 0.5
v 0.7 1.9 0.5
v -0.2 1.9 0.4
v 0.6 1.9 0.4
v -0.2 1.9 -0.4
v 0.6 1.9 -0.4
v -0.3 1.9 -0.5
v 0.7 1.9 -0.5
v -0.2 2 0.4
v 0.6 2 0.4
v 0.1 2 0.1
v 0.3 2 0.1
v 0.1 2 -0.1
v 0.3 2 -0.1
v -0.2 2 -0.4
v 0.6 2 -0.4
v 0.1 2.5 0.2
v 0.3 2.5 0.2
v -5.96046e-08 2.5 0.1
v 0.1 2.5 0.1
v 0.3 2.5 0.1
v 0.4 2.5 0.1
v -5.96046e-08 2.5 -0.1
v 0.1 2.5 -0.1
v 0.3 2.5 -0.1
v 0.4 2.5 -0.1
v 0.1 2.5 -0.2
v 0.3 2.5 -0.2

# faces
f 3/7/1 2/7/1 1/7/1
f 4/7/1 2/7/1 3/7/1
f 7/5/1 6/5/1 5/5/1
f 8/5/1 6/5/1 7/5/1
f 9/4/1 8/4/1 7/4/1
f 10/4/1 8/4/1 9/4/1
f 11/2/1 10/2/1 9/2/1
f 12/2/1 10/2/1 11/2/1
f 13/7/1 3/7/1 1/7/1
f 14/7/1 2/7/1 4/7/1
f 15/7/1 13/7/1 1/7/1
f 15/7/1 14/7/1 13/7/1
f 16/7/1 2/7/1 14/7/1
f 16/7/1 14/7/1 15/7/1
f 19/3/1 18/3/1 17/3/1
f 20/3/1 18/3/1 19/3/1
f 21/3/1 19/3/1 17/3/1
f 22/3/1 18/3/1 20/3/1
f 23/3/1 21/3/1 17/3/1
f 24/3/1 18/3/1 22/3/1
f 25/3/1 23/3/1 17/3/1
f 26/3/1 18/3/1 24/3/1
f 27/3/1 25/3/1 17/3/1
f 27/3/1 26/3/1 25/3/1
f 28/3/1 18/3/1 26/3/1
f 28/3/1 26/3/1 27/3/1
f 31/8/1 30/8/1 29/8/1
f 32/8/1 30/8/1 31/8/1
f 37/5/1 34/5/1 33/5/1
f 38/5/1 34/5/1 37/5/1
f 39/5/1 36/5/1 35/5/1
f 40/5/1 36/5/1 39/5/1
f 41/4/1 38/4/1 37/4/1
f 42/4/1 38/4/1 41/4/1
f 43/4/1 40/4/1 39/4/1
f 44/4/1 40/4/1 43/4/1
f 45/2/1 42/2/1 41/2/1
f 46/2/1 42/2/1 45/2/1
f 47/2/1 44/2/1 43/2/1
f 48/2/1 44/2/1 47/2/1
f 51/6/1 50/6/1 49/6/1
f 52/6/1 50/6/1 51/6/1
f 55/5/1 54/5/1 53/5/1
f 56/5/1 54/5/1 55/5/1
f 59/4/1 58/4/1 57/4/1
f 60/4/1 58/4/1 59/4/1
f 63/3/1 62/3/1 61/3/1
f 64/3/1 62/3/1 63/3/1
f 68/4/1 66/4/1 65/4/1
f 69/4/1 66/4/1 68/4/1
f 71/3/1 68/3/1 67/3/1
f 72/3/1 68/3/1 71/3/1
f 73/3/1 70/3/1 69/3/1
f 74/3/1 70/3/1 73/3/1
f 79/7/1 76/7/1 75/7/1
f 80/7/1 76/7/1 79/7/1
f 81/7/1 78/7/1 77/7/1
f 82/7/1 78/7/1 81/7/1
f 83/7/2 84/7/2 87/7/2
f 87/7/2 84/7/2 88/7/2
f 85/7/2 86/7/2 89/7/2
f 89/7/2 86/7/2 90/7/2
f 91/4/2 92/4/2 94/4/2
f 94/4/2 92/4/2 95/4/2
f 93/3/2 94/3/2 97/3/2
f 97/3/2 94/3/2 98/3/2
f 95/3/2 96/3/2 99/3/2
f 99/3/2 96/3/2 100/3/2
f 101/3/2 102/3/2 103/3/2
f 103/3/2 102/3/2 104/3/2
f 105/4/2 106/4/2 107/4/2
f 107/4/2 106/4/2 108/4/2
f 109/5/2 110/5/2 111/5/2
f 111/5/2 110/5/2 112/5/2
f 113/5/2 114/5/2 117/5/2
f 117/5/2 114/5/2 118/5/2
f 115/5/2 116/5/2 119/5/2
f 119/5/2 116/5/2 120/5/2
f 117/4/2 118/4/2 121/4/2
f 121/4/2 118/4/2 122/4/2
f 119/4/2 120/4/2 123/4/2
f 123/4/2 120/4/2 124/4/2
f 121/2/2 122/2/2 125/2/2
f 125/2/2 122/2/2 126/2/2
f 123/2/2 124/2/2 127/2/2
f 127/2/2 124/2/2 128/2/2
f 129/6/2 130/6/2 131/6/2
f 131/6/2 130/6/2 132/6/2
f 133/3/2 134/3/2 135/3/2
f 135/3/2 134/3/2 136/3/2
f 133/3/2 135/3/2 137/3/2
f 136/3/2 134/3/2 138/3/2
f 133/3/2 137/3/2 139/3/2
f 138/3/2 134/3/2 140/3/2
f 133/3/2 139/3/2 141/3/2
f 140/3/2 134/3/2 142/3/2
f 133/3/2 141/3/2 143/3/2
f 141/3/2 142/3/2 143/3/2
f 142/3/2 134/3/2 144/3/2
f 143/3/2 142/3/2 144/3/2
f 145/8/2 146/8/2 147/8/2
f 147/8/2 146/8/2 148/8/2
f 149/7/2 150/7/2 151/7/2
f 151/7/2 150/7/2 152/7/2
f 153/5/2 154/5/2 155/5/2
f 155/5/2 154/5/2 156/5/2
f 155/4/2 156/4/2 157/4/2
f 157/4/2 156/4/2 158/4/2
f 157/2/2 158/2/2 159/2/2
f 159/2/2 158/2/2 160/2/2
f 149/7/2 151/7/2 161/7/2
f 152/7/2 150/7/2 162/7/2
f 149/7/2 161/7/2 163/7/2
f 161/7/2 162/7/2 163/7/2
f 162/7/2 150/7/2 164/7/2
f 163/7/2 162/7/2 164/7/2
f 167/7/3 166/7/3 165/7/3
f 168/7/3 166/7/3 167/7/3
f 173/5/3 170/5/3 169/5/3
f 174/4/3 171/4/3 170/4/3
f 174/5/3 170/5/3 173/5/3
f 175/2/3 172/2/3 171/2/3
f 175/4/3 171/4/3 174/4/3
f 176/2/3 172/2/3 175/2/3
f 177/7/3 167/7/3 165/7/3
f 178/7/3 166/7/3 168/7/3
f 179/7/3 177/7/3 165/7/3
f 179/7/3 178/7/3 177/7/3
f 180/7/3 166/7/3 178/7/3
f 180/7/3 178/7/3 179/7/3
f 185/3/3 182/3/3 181/3/3
f 186/3/3 182/3/3 185/3/3
f 187/3/3 182/3/3 186/3/3
f 188/3/3 182/3/3 187/3/3
f 189/3/3 185/3/3 181/3/3
f 192/3/3 182/3/3 188/3/3
f 193/3/3 191/3/3 190/3/3
f 193/3/3 192/3/3 191/3/3
f 193/3/3 189/3/3 181/3/3
f 193/3/3 190/3/3 189/3/3
f 194/3/3 182/3/3 192/3/3
f 194/3/3 192/3/3 193/3/3
f 195/8/3 184/8/3 183/8/3
f 196/8/3 184/8/3 195/8/3
f 201/5/3 198/5/3 197/5/3
f 202/4/3 199/4/3 198/4/3
f 202/5/3 198/5/3 201/5/3
f 203/2/3 200/2/3 199/2/3
f 203/4/3 199/4/3 202/4/3
f 204/2/3 200/2/3 203/2/3
f 207/6/3 206/6/3 205/6/3
f 208/6/3 206/6/3 207/6/3
f 213/5/3 210/5/3 209/5/3
f 214/4/3 211/4/3 210/4/3
f 214/5/3 210/5/3 213/5/3
f 215/2/3 212/2/3 211/2/3
f 215/4/3 211/4/3 214/4/3
f 216/2/3 212/2/3 215/2/3
f 219/5/3 218/5/3 217/5/3
f 220/5/3 218/5/3 219/5/3
f 223/4/3 222/4/3 221/4/3
f 224/4/3 222/4/3 223/4/3
f 227/3/3 226/3/3 225/3/3
f 228/3/3 226/3/3 227/3/3
f 232/3/3 230/3/3 229/3/3
f 233/3/3 230/3/3 232/3/3
f 234/4/3 232/4/3 231/4/3
f 235/4/3 232/4/3 234/4/3
f 237/3/3 236/3/3 235/3/3
f 238/3/3 236/3/3 237/3/3
f 241/7/3 240/7/3 239/7/3
f 242/7/3 240/7/3 241/7/3
f 245/7/3 244/7/3 243/7/3
f 246/7/3 244/7/3 245/7/3
f 247/7/4 248/7/4 249/7/4
f 249/7/4 248/7/4 250/7/4
f 251/7/4 252/7/4 253/7/4
f 253/7/4 252/7/4 254/7/4
f 255/3/4 256/3/4 258/3/4
f 258/3/4 256/3/4 259/3/4
f 257/4/4 258/4/4 260/4/4
f 260/4/4 258/4/4 261/4/4
f 261/3/4 262/3/4 263/3/4
f 263/3/4 262/3/4 264/3/4
f 265/3/4 266/3/4 267/3/4
f 267/3/4 266/3/4 268/3/4
f 269/4/4 270/4/4 271/4/4
f 271/4/4 270/4/4 272/4/4
f 273/5/4 274/5/4 275/5/4
f 275/5/4 274/5/4 276/5/4
f 277/5/4 278/5/4 281/5/4
f 278/4/4 279/4/4 282/4/4
f 281/5/4 278/5/4 282/5/4
f 279/2/4 280/2/4 283/2/4
f 282/4/4 279/4/4 283/4/4
f 283/2/4 280/2/4 284/2/4
f 285/6/4 286/6/4 287/6/4
f 287/6/4 286/6/4 288/6/4
f 289/5/4 290/5/4 293/5/4
f 290/4/4 291/4/4 294/4/4
f 293/5/4 290/5/4 294/5/4
f 291/2/4 292/2/4 295/2/4
f 294/4/4 291/4/4 295/4/4
f 295/2/4 292/2/4 296/2/4
f 297/3/4 298/3/4 301/3/4
f 301/3/4 298/3/4 302/3/4
f 302/3/4 298/3/4 303/3/4
f 303/3/4 298/3/4 304/3/4
f 297/3/4 301/3/4 305/3/4
f 304/3/4 298/3/4 308/3/4
f 306/3/4 307/3/4 309/3/4
f 307/3/4 308/3/4 309/3/4
f 297/3/4 305/3/4 309/3/4
f 305/3/4 306/3/4 309/3/4
f 308/3/4 298/3/4 310/3/4
f 309/3/4 308/3/4 310/3/4
f 299/8/4 300/8/4 311/8/4
f 311/8/4 300/8/4 312/8/4
f 313/7/4 314/7/4 315/7/4
f 315/7/4 314/7/4 316/7/4
f 317/5/4 318/5/4 321/5/4
f 318/4/4 319/4/4 322/4/4
f 321/5/4 318/5/4 322/5/4
f 319/2/4 320/2/4 323/2/4
f 322/4/4 319/4/4 323/4/4
f 323/2/4 320/2/4 324/2/4
f 313/7/4 315/7/4 325/7/4
f 316/7/4 314/7/4 326/7/4
f 313/7/4 325/7/4 327/7/4
f 325/7/4 326/7/4 327/7/4
f 326/7/4 314/7/4 328/7/4
f 327/7/4 326/7/4 328/7/4
f 331/7/5 330/7/5 329/7/5
f 332/7/5 330/7/5 331/7/5
f 335/5/5 334/5/5 333/5/5
f 336/5/5 334/5/5 335/5/5
f 341/5/5 338/5/5 337/5/5
f 342/5/5 338/5/5 341/5/5
f 343/5/5 340/5/5 339/5/5
f 344/5/5 340/5/5 343/5/5
f 347/5/5 346/5/5 345/5/5
f 348/5/5 346/5/5 347/5/5
f 352/7/5 350/7/5 349/7/5
f 353/7/5 350/7/5 352/7/5
f 355/7/5 352/7/5 351/7/5
f 356/7/5 352/7/5 355/7/5
f 357/7/5 354/7/5 353/7/5
f 358/7/5 354/7/5 357/7/5
f 359/7/5 357/7/5 356/7/5
f 360/7/5 357/7/5 359/7/5
f 364/3/5 362/3/5 361/3/5
f 365/3/5 362/3/5 364/3/5
f 367/3/5 364/3/5 363/3/5
f 368/3/5 364/3/5 367/3/5
f 369/3/5 366/3/5 365/3/5
f 370/3/5 366/3/5 369/3/5
f 371/3/5 369/3/5 368/3/5
f 372/3/5 369/3/5 371/3/5
f 373/7/6 374/7/6 376/7/6
f 376/7/6 374/7/6 377/7/6
f 375/7/6 376/7/6 379/7/6
f 379/7/6 376/7/6 380/7/6
f 377/7/6 378/7/6 381/7/6
f 381/7/6 378/7/6 382/7/6
f 380/7/6 381/7/6 383/7/6
f 383/7/6 381/7/6 384/7/6
f 385/2/6 386/2/6 387/2/6
f 387/2/6 386/2/6 388/2/6
f 389/2/6 390/2/6 393/2/6
f 393/2/6 390/2/6 394/2/6
f 391/2/6 392/2/6 395/2/6
f 395/2/6 392/2/6 396/2/6
f 397/2/6 398/2/6 399/2/6
f 399/2/6 398/2/6 400/2/6
f 401/7/6 402/7/6 403/7/6
f 403/7/6 402/7/6 404/7/6
f 401/7/6 403/7/6 405/7/6
f 404/7/6 402/7/6 406/7/6
f 401/7/6 405/7/6 407/7/6
f 405/7/6 406/7/6 407/7/6
f 406/7/6 402/7/6 408/7/6
f 407/7/6 406/7/6 408/7/6
f 409/8/6 410/8/6 411/8/6
f 411/8/6 410/8/6 412/8/6
f 409/8/6 411/8/6 413/8/6
f 412/8/6 410/8/6 414/8/6
f 409/8/6 413/8/6 415/8/6
f 413/8/6 414/8/6 415/8/6
f 414/8/6 410/8/6 416/8/6
f 415/8/6 414/8/6 416/8/6
f 417/6/6 418/6/6 419/6/6
f 419/6/6 418/6/6 420/6/6
f 417/6/6 419/6/6 421/6/6
f 420/6/6 418/6/6 422/6/6
f 417/6/6 421/6/6 423/6/6
f 421/6/6 422/6/6 423/6/6
f 422/6/6 418/6/6 424/6/6
f 423/6/6 422/6/6 424/6/6
f 425/5/6 426/5/6 427/5/6
f 427/5/6 426/5/6 428/5/6
f 425/5/6 427/5/6 429/5/6
f 428/5/6 426/5/6 430/5/6
f 425/5/6 429/5/6 431/5/6
f 429/5/6 430/5/6 431/5/6
f 430/5/6 426/5/6 432/5/6
f 431/5/6 430/5/6 432/5/6
f 433/4/6 434/4/6 435/4/6
f 435/4/6 434/4/6 436/4/6
f 433/4/6 435/4/6 437/4/6
f 436/4/6 434/4/6 438/4/6
f 433/4/6 437/4/6 439/4/6
f 437/4/6 438/4/6 439/4/6
f 438/4/6 434/4/6 440/4/6
f 439/4/6 438/4/6 440/4/6
f 441/3/6 442/3/6 444/3/6
f 444/3/6 442/3/6 445/3/6
f 443/3/6 444/3/6 447/3/6
f 445/3/6 446/3/6 447/3/6
f 444/3/6 445/3/6 447/3/6
f 447/3/6 446/3/6 448/3/6
f 448/3/6 446/3/6 449/3/6
f 449/3/6 446/3/6 450/3/6
f 448/3/6 449/3/6 451/3/6
f 451/3/6 449/3/6 452/3/6
