# MagicaVoxel @ Ephtracy

# group
o 

# material
mtllib lunohod_tiles.mtl
usemtl palette

# normals
vn -1 0 0
vn 1 0 0
vn 0 0 1
vn 0 0 -1
vn 0 -1 0
vn 0 1 0

# texcoords
vt 0.306641 0.5
vt 0.970703 0.5
vt 0.974609 0.5

# verts
v -2 0 2
v -2 0 -2
v -2 0.3 2
v -2 0.3 -2
v 2 0 2
v 2 0 -2
v 2 0.3 2
v 2 0.3 -2
v -2 0 2
v -2 0.3 2
v 2 0 2
v 2 0.3 2
v -2 0 -2
v -2 0.3 -2
v 2 0 -2
v 2 0.3 -2
v -2 0 2
v 2 0 2
v -2 0 -2
v 2 0 -2
v -2 0.3 2
v 2 0.3 2
v 0.9 0.3 1.3
v 1.6 0.3 1.3
v -1.7 0.3 0.7
v 0.1 0.3 0.7
v -1.7 0.3 -0.1
v 0.1 0.3 -0.1
v 0.9 0.3 -0.2
v 1.6 0.3 -0.2
v 0.4 0.3 -1.1
v 1.6 0.3 -1.1
v -1.7 0.3 -1.2
v -0.9 0.3 -1.2
v 0.4 0.3 -1.6
v 1.6 0.3 -1.6
v -1.7 0.3 -1.8
v -0.9 0.3 -1.8
v -2 0.3 -2
v 2 0.3 -2

# faces
f 3/2/1 2/2/1 1/2/1
f 4/2/1 2/2/1 3/2/1
f 5/2/2 6/2/2 7/2/2
f 7/2/2 6/2/2 8/2/2
f 11/2/3 10/2/3 9/2/3
f 12/2/3 10/2/3 11/2/3
f 13/2/4 14/2/4 15/2/4
f 15/2/4 14/2/4 16/2/4
f 19/2/5 18/2/5 17/2/5
f 20/2/5 18/2/5 19/2/5
f 21/2/6 22/2/6 23/2/6
f 23/2/6 22/2/6 24/2/6
f 21/2/6 23/2/6 25/2/6
f 25/2/6 23/2/6 26/2/6
f 21/2/6 25/2/6 27/2/6
f 25/3/6 26/3/6 27/3/6
f 26/2/6 23/2/6 28/2/6
f 27/3/6 26/3/6 28/3/6
f 23/3/6 24/3/6 29/3/6
f 28/2/6 23/2/6 29/2/6
f 27/2/6 28/2/6 29/2/6
f 24/2/6 22/2/6 30/2/6
f 29/3/6 24/3/6 30/3/6
f 27/2/6 29/2/6 31/2/6
f 29/2/6 30/2/6 31/2/6
f 30/2/6 22/2/6 32/2/6
f 31/2/6 30/2/6 32/2/6
f 27/2/6 31/2/6 33/2/6
f 21/2/6 27/2/6 33/2/6
f 33/2/6 31/2/6 34/2/6
f 31/3/6 32/3/6 35/3/6
f 34/2/6 31/2/6 35/2/6
f 32/2/6 22/2/6 36/2/6
f 35/3/6 32/3/6 36/3/6
f 33/3/6 34/3/6 37/3/6
f 21/2/6 33/2/6 37/2/6
f 34/2/6 35/2/6 38/2/6
f 37/3/6 34/3/6 38/3/6
f 35/2/6 36/2/6 38/2/6
f 21/2/6 37/2/6 39/2/6
f 37/2/6 38/2/6 39/2/6
f 38/2/6 36/2/6 40/2/6
f 39/2/6 38/2/6 40/2/6
f 36/2/6 22/2/6 40/2/6
